<svg xmlns="http://www.w3.org/2000/svg" xmlns:xlink="http://www.w3.org/1999/xlink" width="100%" height="100%" version="1.1" viewBox="0 0 1525 1096" xml:space="preserve" style="fill-rule:evenodd;clip-rule:evenodd;stroke-linecap:round;stroke-linejoin:round;stroke-miterlimit:1.5"><g><g><g><path d="M212.72,146.182L212.72,132.063L521.426,132.063L521.426,103.825L540.487,139.123L521.426,174.421L521.426,146.182L212.72,146.182Z" style="fill:#3e3e3e" transform="matrix(1,0,0,1,-31,-921) matrix(1,0,0,1,0,900) matrix(1,0,0,1,299,-52.947)"/></g><g><text x="235.411" y="98.782" style="font-family:'FiraSans-Regular','Fira Sans',sans-serif;font-size:84.043px" transform="matrix(1,0,0,1,-31,-921) matrix(1,0,0,1,0,900) matrix(1,0,0,1,-168.926,12.6064)">M<tspan x="301.889" y="98.782">e</tspan>ssag<tspan x="515.19" y="98.782">e</tspan>s</text></g></g><g><g><path d="M212.72,146.182L212.72,132.063L521.426,132.063L521.426,103.825L540.487,139.123L521.426,174.421L521.426,146.182L212.72,146.182Z" style="fill:#ff4d4a" transform="matrix(1,0,0,1,-31,-921) matrix(1,0,0,1,0,995) matrix(1,0,0,1,299,-52.947)"/></g><g><text x="235.411" y="98.782" style="font-family:'FiraSans-Regular','Fira Sans',sans-serif;font-size:84.043px" transform="matrix(1,0,0,1,-31,-921) matrix(1,0,0,1,0,995) matrix(1,0,0,1,-168.926,12.6064)">Cr<tspan x="314.076" y="98.782">e</tspan>at<tspan x="435.517" y="98.782">e</tspan>s</text></g></g><g><g><text x="235.411" y="98.782" style="font-family:'FiraSans-Regular','Fira Sans',sans-serif;font-size:84.043px" transform="matrix(1,0,0,1,-31,-921) matrix(1,0,0,1,0,-15) matrix(1,0,0,1,-168.926,1110.98)">P<tspan x="282.559" y="98.782">e</tspan>rmanent</text></g><g transform="matrix(1,0,0,1,-31,-921) matrix(1,0,0,1,0,-15) matrix(1.75342,0,0,0.430769,335.83,655.838)"><rect width="184.054" height="163.884" x="101.876" y="1143.29" style="fill:#ffc14a;stroke:#3e3e3e;stroke-width:3.05px"/></g></g><g><path d="M1841.87,401.515C1861.04,401.559 1876.53,417.076 1876.53,436.182L1876.53,505.518C1876.53,524.651 1861,540.185 1841.87,540.185L1632.2,540.185L1632.2,401.515L1841.87,401.515Z" style="fill:#ff491b;stroke:#ff0505;stroke-width:4.07px" transform="matrix(1,0,0,1,-31,-921) matrix(1,0,0,1,-1507.73,1026.16)"/></g><g><text x="503.152" y="302.395" style="font-family:'FiraSans-Regular','Fira Sans',sans-serif;font-size:50px;fill:#fff" transform="matrix(1,0,0,1,-31,-921) matrix(1,0,0,1,-326.049,1208.17)">Driv<tspan x="592.852" y="302.395">e</tspan>r</text></g><g><g transform="matrix(1,0,0,1,-31,-921) matrix(1,0,0,1,-257.171,22.6916) matrix(0.724138,0,0,0.724138,223.721,413.46)"><ellipse cx="829.267" cy="1498.79" rx="134.889" ry="73.117" style="fill:#ffc14a;stroke:#3e3e3e;stroke-width:5.38px"/></g><g><text x="762.453" y="1473.58" style="font-family:'FiraSans-Regular','Fira Sans',sans-serif;font-size:50px" transform="matrix(1,0,0,1,-31,-921) matrix(1,0,0,1,-257.171,22.6916) matrix(1,0,0,1,10.0851,37.8193)">C<tspan x="789.953 819.153 837.953" y="1473.58 1473.58 1473.58">ore</tspan></text></g></g><g><g transform="matrix(1,0,0,1,-31,-921) matrix(1,0,0,1,-380.468,23.7117) matrix(1.75342,0,0,1.61288,854.748,-134.087)"><rect width="184.054" height="163.884" x="101.876" y="1143.29" style="fill:#ffc14a;stroke:#3e3e3e;stroke-width:2.31px"/></g><g><text x="149.289" y="1193.29" style="font-family:'FiraSans-Regular','Fira Sans',sans-serif;font-size:50px" transform="matrix(1,0,0,1,-31,-921) matrix(1,0,0,1,-380.468,23.7117) matrix(1,0,0,1,931.504,756.618)">Schedul<tspan x="330.389" y="1193.29">e</tspan>r</text></g><g><g transform="matrix(1,0,0,1,-31,-921) matrix(1,0,0,1,-380.468,23.7117) matrix(1,0,0,1,-15.1891,-18.5496) matrix(0.821616,0,0,0.821616,525.276,598.978)"><ellipse cx="829.267" cy="1498.79" rx="134.889" ry="73.117" style="fill:#fff;stroke:#3e3e3e;stroke-width:4.74px;stroke-dasharray:23.7,23.7,0,0"/></g><g><path d="M858.852,1972.01C877.965,1982.81 889.714,1997.46 889.714,2013.59C889.714,2046.75 840.054,2073.66 778.887,2073.66C746.089,2073.66 716.6,2065.92 696.296,2053.63L858.852,1972.01Z" style="fill:#ffdd9d" transform="matrix(1,0,0,1,-31,-921) matrix(1,0,0,1,-380.468,23.7117) matrix(1,0,0,1,-15.1891,-18.5496) matrix(1,0,0,1,427.729,-183.18)"/></g><g transform="matrix(1,0,0,1,-31,-921) matrix(1,0,0,1,-380.468,23.7117) matrix(1,0,0,1,-15.1891,-18.5496) matrix(0.821616,0,0,0.821616,525.276,598.978)"><ellipse cx="829.267" cy="1498.79" rx="134.889" ry="73.117" style="fill:none;stroke:#3e3e3e;stroke-width:4.74px;stroke-dasharray:23.7,23.7,0,0"/></g><g><text x="762.453" y="1473.58" style="font-family:'FiraSans-Regular','Fira Sans',sans-serif;font-size:50px" transform="matrix(1,0,0,1,-31,-921) matrix(1,0,0,1,-380.468,23.7117) matrix(1,0,0,1,-15.1891,-18.5496) matrix(0.806811,0,0,0.806811,542.204,653.353)">Mix<tspan x="839.603" y="1473.58">e</tspan>r</text></g></g></g><g><g transform="matrix(1,0,0,1,-31,-921) matrix(1,0,0,1,-47.9044,-158.841) matrix(0.724138,0,0,0.724138,223.721,413.46)"><ellipse cx="829.267" cy="1498.79" rx="134.889" ry="73.117" style="fill:#ffc14a;stroke:#3e3e3e;stroke-width:5.38px"/></g><g><text x="762.453" y="1473.58" style="font-family:'FiraSans-Regular','Fira Sans',sans-serif;font-size:50px" transform="matrix(1,0,0,1,-31,-921) matrix(1,0,0,1,-47.9044,-158.841) matrix(1,0,0,1,-12.6064,37.8193)">Ev<tspan x="813.303" y="1473.58">e</tspan>nts</text></g></g><g><path d="M212.72,146.182L212.72,132.063L489.811,132.063L489.811,103.825L540.487,139.123L489.811,174.421L489.811,146.182L212.72,146.182Z" style="fill:#ff4d4a" transform="matrix(1,0,0,1,-31,-921) matrix(0.234011,0.0406263,-0.10801,0.622149,635.72,1439.47)"/></g><g><path d="M212.72,146.182L212.72,132.063L528.222,132.063L528.222,103.825L540.487,139.123L528.222,174.421L528.222,146.182L212.72,146.182Z" style="fill:#ff4d4a" transform="matrix(1,0,0,1,-31,-921) matrix(0.942841,-0.272086,0.175081,0.606697,445.215,1481.7)"/></g><g><g transform="matrix(1,0,0,1,-31,-921) matrix(1,0,0,1,57.9896,47.9044) matrix(1.01835,0,0,1.01835,-11.9813,-27.0542)"><ellipse cx="829.267" cy="1498.79" rx="134.889" ry="73.117" style="fill:#fff;stroke:#3e3e3e;stroke-width:3.82px"/></g><g><text x="702.378" y="1473.58" style="font-family:'FiraSans-Regular','Fira Sans',sans-serif;font-size:50px" transform="matrix(1,0,0,1,-31,-921) matrix(1,0,0,1,57.9896,47.9044) matrix(1,0,0,1,9,40.3406)">W<tspan x="742.178" y="1473.58">e</tspan>bsock<tspan x="900.928" y="1473.58">e</tspan>t</text></g></g><g><g transform="matrix(1,0,0,1,-31,-921) matrix(1,0,0,1,284.905,-123.543) matrix(1.01835,0,0,1.01835,-11.9813,-27.0542)"><ellipse cx="829.267" cy="1498.79" rx="134.889" ry="73.117" style="fill:#fff;stroke:#3e3e3e;stroke-width:3.82px"/></g><g><text x="743.378" y="1473.58" style="font-family:'FiraSans-Regular','Fira Sans',sans-serif;font-size:50px" transform="matrix(1,0,0,1,-31,-921) matrix(1,0,0,1,284.905,-123.543) matrix(1,0,0,1,9,40.3406)">UDP Rx</text></g></g><g><g><path d="M212.72,146.182L212.72,132.063L514.241,132.063L514.241,103.825L540.487,139.123L514.241,174.421L514.241,146.182L212.72,146.182Z" style="fill:#3e3e3e" transform="matrix(1,0,0,1,-31,-921) matrix(0.106551,-0.446033,0.614174,0.146717,753.629,1845.98)"/></g><g><path d="M212.72,146.182L212.72,132.063L491.234,132.063L491.234,103.825L540.487,139.123L491.234,174.421L491.234,146.182L212.72,146.182Z" style="fill:#3e3e3e" transform="matrix(1,0,0,1,-31,-921) matrix(-0.09184,-0.226458,0.585165,-0.237313,776.07,1552.03)"/></g><g><path d="M212.72,146.182L212.72,132.063L491.234,132.063L491.234,103.825L540.487,139.123L491.234,174.421L491.234,146.182L212.72,146.182Z" style="fill:#3e3e3e" transform="matrix(1,0,0,1,-31,-921) matrix(-0.242347,-0.0314007,0.0811391,-0.62622,1007.44,1453.94)"/></g><g><path d="M243.19,146.182L243.19,174.421L212.72,139.123L243.19,103.825L243.19,132.063L524.033,132.063L524.033,103.825L540.487,139.123L524.033,174.421L524.033,146.182L243.19,146.182Z" style="fill:#3e3e3e" transform="matrix(1,0,0,1,-31,-921) matrix(0.425191,0.595256,-0.513833,0.36703,610.905,1394.44)"/></g><g><path d="M246.95,146.182L246.95,174.421L212.72,139.123L246.95,103.825L246.95,132.063L507.48,132.063L507.48,103.825L540.487,139.123L507.48,174.421L507.48,146.182L246.95,146.182Z" style="fill:#3e3e3e" transform="matrix(1,0,0,1,-31,-921) matrix(-0.238092,0.276193,-0.478275,-0.412296,812.148,1376.42)"/></g></g><g><path d="M212.72,146.182L212.72,132.063L496.118,132.063L496.118,103.825L540.487,139.123L496.118,174.421L496.118,146.182L212.72,146.182Z" style="fill:#3e3e3e" transform="matrix(1,0,0,1,-31,-921) matrix(0.268623,0.0378223,-0.0880408,0.625287,331.337,1404.06)"/></g></g></svg>