<svg xmlns="http://www.w3.org/2000/svg" xmlns:xlink="http://www.w3.org/1999/xlink" width="100%" height="100%" version="1.1" viewBox="0 0 1375 1307" xml:space="preserve" style="fill-rule:evenodd;clip-rule:evenodd;stroke-linecap:round;stroke-linejoin:round;stroke-miterlimit:1.5"><g><g><path d="M89.27,1672.76L1407.47,1672.76" style="fill:none;stroke:#bababa;stroke-width:3.97px;stroke-dasharray:39.71,39.71,0,0" transform="matrix(1,0,0,1,-2132,-380) matrix(0.960543,0,0,1,2128.12,-622.183)"/></g><g><text x="409.473" y="1589.56" style="font-family:'FiraSans-Regular','Fira Sans',sans-serif;font-size:50px" transform="matrix(1,0,0,1,-2132,-380) matrix(1,0,0,1,1783.91,-585.183)">As<tspan x="460.973" y="1589.56">y</tspan>nc</text></g><g><text x="409.473" y="1589.56" style="font-family:'FiraSans-Regular','Fira Sans',sans-serif;font-size:50px" transform="matrix(1,0,0,1,-2132,-380) matrix(1,0,0,1,1783.91,-468.47)">S<tspan x="435.723" y="1589.56">y</tspan>nc</text></g><g><g transform="matrix(1,0,0,1,-2132,-380) matrix(1,0,0,1,1536.27,-1077.6) matrix(1.75342,0,0,1.61288,854.748,-134.087)"><rect width="184.054" height="163.884" x="101.876" y="1143.29" style="fill:#ffc14a;stroke:#3e3e3e;stroke-width:2.31px"/></g><g><text x="140.064" y="1193.29" style="font-family:'FiraSans-Regular','Fira Sans',sans-serif;font-size:50px" transform="matrix(1,0,0,1,-2132,-380) matrix(1,0,0,1,1536.27,-1077.6) matrix(1,0,0,1,931.504,566.618)">Idl<tspan x="198.864" y="1193.29">e</tspan> Mix<tspan x="316.764 344.264 363.064" y="1193.29 1193.29 1193.29">ers</tspan></text></g><g><g opacity=".5"><g><g transform="matrix(1,0,0,1,-2132,-380) matrix(1,0,0,1,1536.27,-1077.6) matrix(1,0,0,1,91.9551,9.9189) matrix(0.506003,0,0,0.506003,744.793,1148.74) matrix(1.01835,0,0,1.01835,-11.9813,-27.0542)"><ellipse cx="829.267" cy="1498.79" rx="134.889" ry="73.117" style="fill:#fff;stroke:#000;stroke-width:7.56px"/></g><g><text x="806.428" y="1473.58" style="font-family:'FiraSans-Regular','Fira Sans',sans-serif;font-size:50px;stroke:#000;stroke-opacity:0;stroke-width:1.98px;stroke-linecap:butt;stroke-miterlimit:2" transform="matrix(1,0,0,1,-2132,-380) matrix(1,0,0,1,1536.27,-1077.6) matrix(1,0,0,1,91.9551,9.9189) matrix(0.506003,0,0,0.506003,744.793,1148.74) matrix(1,0,0,1,9,40.3406)">...</text></g></g><g><g transform="matrix(1,0,0,1,-2132,-380) matrix(1,0,0,1,1536.27,-1077.6) matrix(1,0,0,1,91.9551,9.9189) matrix(0.506003,0,0,0.506003,744.011,1098.98) matrix(1.01835,0,0,1.01835,-11.9813,-27.0542)"><ellipse cx="829.267" cy="1498.79" rx="134.889" ry="73.117" style="fill:#fff;stroke:#000;stroke-width:7.56px"/></g><g><text x="762.453" y="1473.58" style="font-family:'FiraSans-Regular','Fira Sans',sans-serif;font-size:50px;stroke:#000;stroke-opacity:0;stroke-width:1.98px;stroke-linecap:butt;stroke-miterlimit:2" transform="matrix(1,0,0,1,-2132,-380) matrix(1,0,0,1,1536.27,-1077.6) matrix(1,0,0,1,91.9551,9.9189) matrix(0.506003,0,0,0.506003,744.011,1098.98) matrix(1,0,0,1,9,40.3406)">Mix<tspan x="839.603" y="1473.58">e</tspan>r</text></g></g><g><g transform="matrix(1,0,0,1,-2132,-380) matrix(1,0,0,1,1536.27,-1077.6) matrix(1,0,0,1,91.9551,9.9189) matrix(0.506003,0,0,0.506003,744.047,1049.39) matrix(1.01835,0,0,1.01835,-11.9813,-27.0542)"><ellipse cx="829.267" cy="1498.79" rx="134.889" ry="73.117" style="fill:#fff;stroke:#000;stroke-width:7.56px"/></g><g><text x="762.453" y="1473.58" style="font-family:'FiraSans-Regular','Fira Sans',sans-serif;font-size:50px;stroke:#000;stroke-opacity:0;stroke-width:1.98px;stroke-linecap:butt;stroke-miterlimit:2" transform="matrix(1,0,0,1,-2132,-380) matrix(1,0,0,1,1536.27,-1077.6) matrix(1,0,0,1,91.9551,9.9189) matrix(0.506003,0,0,0.506003,744.047,1049.39) matrix(1,0,0,1,9,40.3406)">Mix<tspan x="839.603" y="1473.58">e</tspan>r</text></g></g></g></g><g><g opacity=".69"><g><g transform="matrix(1,0,0,1,-2132,-380) matrix(1,0,0,1,1536.27,-1077.6) matrix(1,0,0,1,31.9551,9.9189) matrix(0.506003,0,0,0.506003,744.793,1148.74) matrix(1.01835,0,0,1.01835,-11.9813,-27.0542)"><ellipse cx="829.267" cy="1498.79" rx="134.889" ry="73.117" style="fill:#fff;stroke:#3e3e3e;stroke-width:7.56px"/></g><g><text x="806.428" y="1473.58" style="font-family:'FiraSans-Regular','Fira Sans',sans-serif;font-size:50px" transform="matrix(1,0,0,1,-2132,-380) matrix(1,0,0,1,1536.27,-1077.6) matrix(1,0,0,1,31.9551,9.9189) matrix(0.506003,0,0,0.506003,744.793,1148.74) matrix(1,0,0,1,9,40.3406)">...</text></g></g><g><g transform="matrix(1,0,0,1,-2132,-380) matrix(1,0,0,1,1536.27,-1077.6) matrix(1,0,0,1,31.9551,9.9189) matrix(0.506003,0,0,0.506003,744.011,1098.98) matrix(1.01835,0,0,1.01835,-11.9813,-27.0542)"><ellipse cx="829.267" cy="1498.79" rx="134.889" ry="73.117" style="fill:#fff;stroke:#3e3e3e;stroke-width:7.56px"/></g><g><text x="762.453" y="1473.58" style="font-family:'FiraSans-Regular','Fira Sans',sans-serif;font-size:50px" transform="matrix(1,0,0,1,-2132,-380) matrix(1,0,0,1,1536.27,-1077.6) matrix(1,0,0,1,31.9551,9.9189) matrix(0.506003,0,0,0.506003,744.011,1098.98) matrix(1,0,0,1,9,40.3406)">Mix<tspan x="839.603" y="1473.58">e</tspan>r</text></g></g><g><g transform="matrix(1,0,0,1,-2132,-380) matrix(1,0,0,1,1536.27,-1077.6) matrix(1,0,0,1,31.9551,9.9189) matrix(0.506003,0,0,0.506003,744.047,1049.39) matrix(1.01835,0,0,1.01835,-11.9813,-27.0542)"><ellipse cx="829.267" cy="1498.79" rx="134.889" ry="73.117" style="fill:#fff;stroke:#3e3e3e;stroke-width:7.56px"/></g><g><text x="762.453" y="1473.58" style="font-family:'FiraSans-Regular','Fira Sans',sans-serif;font-size:50px" transform="matrix(1,0,0,1,-2132,-380) matrix(1,0,0,1,1536.27,-1077.6) matrix(1,0,0,1,31.9551,9.9189) matrix(0.506003,0,0,0.506003,744.047,1049.39) matrix(1,0,0,1,9,40.3406)">Mix<tspan x="839.603" y="1473.58">e</tspan>r</text></g></g></g></g><g><g><g transform="matrix(1,0,0,1,-2132,-380) matrix(1,0,0,1,1536.27,-1077.6) matrix(1,0,0,1,-28.0449,9.9189) matrix(0.506003,0,0,0.506003,744.793,1148.74) matrix(1.01835,0,0,1.01835,-11.9813,-27.0542)"><ellipse cx="829.267" cy="1498.79" rx="134.889" ry="73.117" style="fill:#fff;stroke:#3e3e3e;stroke-width:7.56px"/></g><g><text x="806.428" y="1473.58" style="font-family:'FiraSans-Regular','Fira Sans',sans-serif;font-size:50px" transform="matrix(1,0,0,1,-2132,-380) matrix(1,0,0,1,1536.27,-1077.6) matrix(1,0,0,1,-28.0449,9.9189) matrix(0.506003,0,0,0.506003,744.793,1148.74) matrix(1,0,0,1,9,40.3406)">...</text></g></g><g><g transform="matrix(1,0,0,1,-2132,-380) matrix(1,0,0,1,1536.27,-1077.6) matrix(1,0,0,1,-28.0449,9.9189) matrix(0.506003,0,0,0.506003,744.011,1098.98) matrix(1.01835,0,0,1.01835,-11.9813,-27.0542)"><ellipse cx="829.267" cy="1498.79" rx="134.889" ry="73.117" style="fill:#fff;stroke:#3e3e3e;stroke-width:7.56px"/></g><g><text x="762.453" y="1473.58" style="font-family:'FiraSans-Regular','Fira Sans',sans-serif;font-size:50px" transform="matrix(1,0,0,1,-2132,-380) matrix(1,0,0,1,1536.27,-1077.6) matrix(1,0,0,1,-28.0449,9.9189) matrix(0.506003,0,0,0.506003,744.011,1098.98) matrix(1,0,0,1,9,40.3406)">Mix<tspan x="839.603" y="1473.58">e</tspan>r</text></g></g><g><g transform="matrix(1,0,0,1,-2132,-380) matrix(1,0,0,1,1536.27,-1077.6) matrix(1,0,0,1,-28.0449,9.9189) matrix(0.506003,0,0,0.506003,744.047,1049.39) matrix(1.01835,0,0,1.01835,-11.9813,-27.0542)"><ellipse cx="829.267" cy="1498.79" rx="134.889" ry="73.117" style="fill:#fff;stroke:#3e3e3e;stroke-width:7.56px"/></g><g><text x="762.453" y="1473.58" style="font-family:'FiraSans-Regular','Fira Sans',sans-serif;font-size:50px" transform="matrix(1,0,0,1,-2132,-380) matrix(1,0,0,1,1536.27,-1077.6) matrix(1,0,0,1,-28.0449,9.9189) matrix(0.506003,0,0,0.506003,744.047,1049.39) matrix(1,0,0,1,9,40.3406)">Mix<tspan x="839.603" y="1473.58">e</tspan>r</text></g></g></g></g><g><g transform="matrix(1,0,0,1,-2132,-380) matrix(1,0,0,1,1289.87,-560.521) matrix(2.86943,0,0,1.72283,741.053,-259.784)"><rect width="184.054" height="163.884" x="101.876" y="1143.29" style="fill:#eaeaea;stroke:#3e3e3e;stroke-width:1.65px"/></g><g><g transform="matrix(1,0,0,1,-2132,-380) matrix(1,0,0,1,1289.87,-560.521) matrix(1,0,0,1,193.864,60.8467) matrix(1.75342,0,0,1.27206,854.748,255.576)"><rect width="184.054" height="163.884" x="101.876" y="1143.29" style="fill:#dbdbdb;stroke:#3e3e3e;stroke-width:2.54px"/></g><g><text x="160.901" y="1183.91" style="font-family:'FiraSans-Regular','Fira Sans',sans-serif;font-size:37.5px" transform="matrix(1,0,0,1,-2132,-380) matrix(1,0,0,1,1289.87,-560.521) matrix(1,0,0,1,193.864,60.8467) matrix(1,0,0,1,931.504,566.618)">Thr<tspan x="216.364" y="1183.91">e</tspan>ad P<tspan x="310.789" y="1183.91">o</tspan>ol</text></g><g><g transform="matrix(1,0,0,1,-2132,-380) matrix(1,0,0,1,1289.87,-560.521) matrix(1,0,0,1,193.864,60.8467) matrix(0.506003,0,0,0.506003,767.748,1105.66) matrix(1.01835,0,0,1.01835,-11.9813,-27.0542)"><ellipse cx="829.267" cy="1498.79" rx="134.889" ry="73.117" style="fill:#fff;stroke:#3e3e3e;stroke-width:7.56px"/></g><g><text x="806.428" y="1473.58" style="font-family:'FiraSans-Regular','Fira Sans',sans-serif;font-size:50px" transform="matrix(1,0,0,1,-2132,-380) matrix(1,0,0,1,1289.87,-560.521) matrix(1,0,0,1,193.864,60.8467) matrix(0.506003,0,0,0.506003,767.748,1105.66) matrix(1,0,0,1,9,40.3406)">...</text></g></g><g><g><g transform="matrix(1,0,0,1,-2132,-380) matrix(1,0,0,1,1289.87,-560.521) matrix(1,0,0,1,193.864,60.8467) matrix(1,0,0,1,-31.0449,9.9189) matrix(0.506003,0,0,0.506003,744.047,1049.39) matrix(1.01835,0,0,1.01835,-11.9813,-27.0542)"><ellipse cx="829.267" cy="1498.79" rx="134.889" ry="73.117" style="fill:#fff;stroke:#3e3e3e;stroke-width:7.56px"/></g><g><text x="770.503" y="1473.58" style="font-family:'FiraSans-Regular','Fira Sans',sans-serif;font-size:50px" transform="matrix(1,0,0,1,-2132,-380) matrix(1,0,0,1,1289.87,-560.521) matrix(1,0,0,1,193.864,60.8467) matrix(1,0,0,1,-31.0449,9.9189) matrix(0.506003,0,0,0.506003,744.047,1049.39) matrix(1,0,0,1,9,40.3406)">Seek</text></g></g><g><g transform="matrix(1,0,0,1,-2132,-380) matrix(1,0,0,1,1289.87,-560.521) matrix(1,0,0,1,193.864,60.8467) matrix(1,0,0,1,-31.0449,9.9189) matrix(0.506003,0,0,0.506003,854.011,1048.98) matrix(1.01835,0,0,1.01835,-11.9813,-27.0542)"><ellipse cx="829.267" cy="1498.79" rx="134.889" ry="73.117" style="fill:#fff;stroke:#3e3e3e;stroke-width:7.56px"/></g><g><text x="719.778" y="1473.58" style="font-family:'FiraSans-Regular','Fira Sans',sans-serif;font-size:50px" transform="matrix(1,0,0,1,-2132,-380) matrix(1,0,0,1,1289.87,-560.521) matrix(1,0,0,1,193.864,60.8467) matrix(1,0,0,1,-31.0449,9.9189) matrix(0.506003,0,0,0.506003,854.011,1048.98) matrix(1,0,0,1,9,40.3406)">C<tspan x="747.278" y="1473.58">o</tspan>mpose</text></g></g></g></g><g transform="matrix(1,0,0,1,-2132,-380) matrix(1,0,0,1,1289.87,-560.521) matrix(1,0,0,1,931.504,566.618)"><g id="Live"><text x="140.085" y="1190.16" style="font-family:'FiraSans-Regular','Fira Sans',sans-serif;font-size:45.833px">Liv<tspan x="197.926" y="1190.16">e</tspan> Mix<tspan x="306.001 331.21 348.443" y="1190.16 1190.16 1190.16">ers</tspan> Thr<tspan x="449.78" y="1190.16">e</tspan>ad #</text><text x="563.218" y="1190.16" style="font-family:'FiraSans-Italic','Fira Sans',sans-serif;font-style:italic;font-size:45.833px">1</text></g></g><g><g><g transform="matrix(1,0,0,1,-2132,-380) matrix(1,0,0,1,1289.87,-560.521) matrix(1,0,0,1,-28.0449,19.9189) matrix(0.506003,0,0,0.506003,744.793,1148.74) matrix(1.01835,0,0,1.01835,-11.9813,-27.0542)"><ellipse cx="829.267" cy="1498.79" rx="134.889" ry="73.117" style="fill:#fff;stroke:#3e3e3e;stroke-width:7.56px"/></g><g><text x="806.428" y="1473.58" style="font-family:'FiraSans-Regular','Fira Sans',sans-serif;font-size:50px" transform="matrix(1,0,0,1,-2132,-380) matrix(1,0,0,1,1289.87,-560.521) matrix(1,0,0,1,-28.0449,19.9189) matrix(0.506003,0,0,0.506003,744.793,1148.74) matrix(1,0,0,1,9,40.3406)">...</text></g></g><g><g transform="matrix(1,0,0,1,-2132,-380) matrix(1,0,0,1,1289.87,-560.521) matrix(1,0,0,1,-28.0449,19.9189) matrix(0.506003,0,0,0.506003,744.011,1098.98) matrix(1.01835,0,0,1.01835,-11.9813,-27.0542)"><ellipse cx="829.267" cy="1498.79" rx="134.889" ry="73.117" style="fill:#fff;stroke:#3e3e3e;stroke-width:7.56px"/></g><g><text x="762.453" y="1473.58" style="font-family:'FiraSans-Regular','Fira Sans',sans-serif;font-size:50px" transform="matrix(1,0,0,1,-2132,-380) matrix(1,0,0,1,1289.87,-560.521) matrix(1,0,0,1,-28.0449,19.9189) matrix(0.506003,0,0,0.506003,744.011,1098.98) matrix(1,0,0,1,9,40.3406)">Mix<tspan x="839.603" y="1473.58">e</tspan>r</text></g></g><g><g transform="matrix(1,0,0,1,-2132,-380) matrix(1,0,0,1,1289.87,-560.521) matrix(1,0,0,1,-28.0449,19.9189) matrix(0.506003,0,0,0.506003,744.047,1049.39) matrix(1.01835,0,0,1.01835,-11.9813,-27.0542)"><ellipse cx="829.267" cy="1498.79" rx="134.889" ry="73.117" style="fill:#fff;stroke:#3e3e3e;stroke-width:7.56px"/></g><g><text x="762.453" y="1473.58" style="font-family:'FiraSans-Regular','Fira Sans',sans-serif;font-size:50px" transform="matrix(1,0,0,1,-2132,-380) matrix(1,0,0,1,1289.87,-560.521) matrix(1,0,0,1,-28.0449,19.9189) matrix(0.506003,0,0,0.506003,744.047,1049.39) matrix(1,0,0,1,9,40.3406)">Mix<tspan x="839.603" y="1473.58">e</tspan>r</text></g></g></g></g><g><g transform="matrix(1,0,0,1,-2132,-380) matrix(1,0,0,1,1929.87,-560.521) matrix(2.86943,0,0,1.72283,741.053,-259.784)"><rect width="184.054" height="163.884" x="101.876" y="1143.29" style="fill:#eaeaea;stroke:#3e3e3e;stroke-width:1.65px"/></g><g><g transform="matrix(1,0,0,1,-2132,-380) matrix(1,0,0,1,1929.87,-560.521) matrix(1,0,0,1,193.864,60.8467) matrix(1.75342,0,0,1.27206,854.748,255.576)"><rect width="184.054" height="163.884" x="101.876" y="1143.29" style="fill:#dbdbdb;stroke:#3e3e3e;stroke-width:2.54px"/></g><g><text x="160.901" y="1183.91" style="font-family:'FiraSans-Regular','Fira Sans',sans-serif;font-size:37.5px" transform="matrix(1,0,0,1,-2132,-380) matrix(1,0,0,1,1929.87,-560.521) matrix(1,0,0,1,193.864,60.8467) matrix(1,0,0,1,931.504,566.618)">Thr<tspan x="216.364" y="1183.91">e</tspan>ad P<tspan x="310.789" y="1183.91">o</tspan>ol</text></g><g><g transform="matrix(1,0,0,1,-2132,-380) matrix(1,0,0,1,1929.87,-560.521) matrix(1,0,0,1,193.864,60.8467) matrix(0.506003,0,0,0.506003,767.748,1105.66) matrix(1.01835,0,0,1.01835,-11.9813,-27.0542)"><ellipse cx="829.267" cy="1498.79" rx="134.889" ry="73.117" style="fill:#fff;stroke:#3e3e3e;stroke-width:7.56px"/></g><g><text x="806.428" y="1473.58" style="font-family:'FiraSans-Regular','Fira Sans',sans-serif;font-size:50px" transform="matrix(1,0,0,1,-2132,-380) matrix(1,0,0,1,1929.87,-560.521) matrix(1,0,0,1,193.864,60.8467) matrix(0.506003,0,0,0.506003,767.748,1105.66) matrix(1,0,0,1,9,40.3406)">...</text></g></g><g><g><g transform="matrix(1,0,0,1,-2132,-380) matrix(1,0,0,1,1929.87,-560.521) matrix(1,0,0,1,193.864,60.8467) matrix(1,0,0,1,-31.0449,9.9189) matrix(0.506003,0,0,0.506003,744.047,1049.39) matrix(1.01835,0,0,1.01835,-11.9813,-27.0542)"><ellipse cx="829.267" cy="1498.79" rx="134.889" ry="73.117" style="fill:#fff;stroke:#3e3e3e;stroke-width:7.56px"/></g><g><text x="770.503" y="1473.58" style="font-family:'FiraSans-Regular','Fira Sans',sans-serif;font-size:50px" transform="matrix(1,0,0,1,-2132,-380) matrix(1,0,0,1,1929.87,-560.521) matrix(1,0,0,1,193.864,60.8467) matrix(1,0,0,1,-31.0449,9.9189) matrix(0.506003,0,0,0.506003,744.047,1049.39) matrix(1,0,0,1,9,40.3406)">Seek</text></g></g><g><g transform="matrix(1,0,0,1,-2132,-380) matrix(1,0,0,1,1929.87,-560.521) matrix(1,0,0,1,193.864,60.8467) matrix(1,0,0,1,-31.0449,9.9189) matrix(0.506003,0,0,0.506003,854.011,1048.98) matrix(1.01835,0,0,1.01835,-11.9813,-27.0542)"><ellipse cx="829.267" cy="1498.79" rx="134.889" ry="73.117" style="fill:#fff;stroke:#3e3e3e;stroke-width:7.56px"/></g><g><text x="719.778" y="1473.58" style="font-family:'FiraSans-Regular','Fira Sans',sans-serif;font-size:50px" transform="matrix(1,0,0,1,-2132,-380) matrix(1,0,0,1,1929.87,-560.521) matrix(1,0,0,1,193.864,60.8467) matrix(1,0,0,1,-31.0449,9.9189) matrix(0.506003,0,0,0.506003,854.011,1048.98) matrix(1,0,0,1,9,40.3406)">C<tspan x="747.278" y="1473.58">o</tspan>mpose</text></g></g></g></g><g transform="matrix(1,0,0,1,-2132,-380) matrix(1,0,0,1,1929.87,-560.521) matrix(1,0,0,1,931.504,566.618)"><g id="Live1"><text x="136.578" y="1190.16" style="font-family:'FiraSans-Regular','Fira Sans',sans-serif;font-size:45.833px">Liv<tspan x="194.42" y="1190.16">e</tspan> Mix<tspan x="302.495 327.703 344.937" y="1190.16 1190.16 1190.16">ers</tspan> Thr<tspan x="446.274" y="1190.16">e</tspan>ad #</text><text x="559.712" y="1190.16" style="font-family:'FiraSans-Italic','Fira Sans',sans-serif;font-style:italic;font-size:45.833px">n</text></g></g><g><g><g transform="matrix(1,0,0,1,-2132,-380) matrix(1,0,0,1,1929.87,-560.521) matrix(1,0,0,1,-28.0449,19.9189) matrix(0.506003,0,0,0.506003,744.793,1148.74) matrix(1.01835,0,0,1.01835,-11.9813,-27.0542)"><ellipse cx="829.267" cy="1498.79" rx="134.889" ry="73.117" style="fill:#fff;stroke:#3e3e3e;stroke-width:7.56px"/></g><g><text x="806.428" y="1473.58" style="font-family:'FiraSans-Regular','Fira Sans',sans-serif;font-size:50px" transform="matrix(1,0,0,1,-2132,-380) matrix(1,0,0,1,1929.87,-560.521) matrix(1,0,0,1,-28.0449,19.9189) matrix(0.506003,0,0,0.506003,744.793,1148.74) matrix(1,0,0,1,9,40.3406)">...</text></g></g><g><g transform="matrix(1,0,0,1,-2132,-380) matrix(1,0,0,1,1929.87,-560.521) matrix(1,0,0,1,-28.0449,19.9189) matrix(0.506003,0,0,0.506003,744.011,1098.98) matrix(1.01835,0,0,1.01835,-11.9813,-27.0542)"><ellipse cx="829.267" cy="1498.79" rx="134.889" ry="73.117" style="fill:#fff;stroke:#3e3e3e;stroke-width:7.56px"/></g><g><text x="762.453" y="1473.58" style="font-family:'FiraSans-Regular','Fira Sans',sans-serif;font-size:50px" transform="matrix(1,0,0,1,-2132,-380) matrix(1,0,0,1,1929.87,-560.521) matrix(1,0,0,1,-28.0449,19.9189) matrix(0.506003,0,0,0.506003,744.011,1098.98) matrix(1,0,0,1,9,40.3406)">Mix<tspan x="839.603" y="1473.58">e</tspan>r</text></g></g><g><g transform="matrix(1,0,0,1,-2132,-380) matrix(1,0,0,1,1929.87,-560.521) matrix(1,0,0,1,-28.0449,19.9189) matrix(0.506003,0,0,0.506003,744.047,1049.39) matrix(1.01835,0,0,1.01835,-11.9813,-27.0542)"><ellipse cx="829.267" cy="1498.79" rx="134.889" ry="73.117" style="fill:#fff;stroke:#3e3e3e;stroke-width:7.56px"/></g><g><text x="762.453" y="1473.58" style="font-family:'FiraSans-Regular','Fira Sans',sans-serif;font-size:50px" transform="matrix(1,0,0,1,-2132,-380) matrix(1,0,0,1,1929.87,-560.521) matrix(1,0,0,1,-28.0449,19.9189) matrix(0.506003,0,0,0.506003,744.047,1049.39) matrix(1,0,0,1,9,40.3406)">Mix<tspan x="839.603" y="1473.58">e</tspan>r</text></g></g></g></g><g><g transform="matrix(1,0,0,1,-2132,-380) matrix(1,0,0,1,1738.24,98.1256) matrix(0.924892,0,0,0.924892,52.9138,113.02)"><ellipse cx="829.267" cy="1498.79" rx="134.889" ry="73.117" style="fill:#ffc14a;stroke:#3e3e3e;stroke-width:4.21px"/></g><g><text x="725.078" y="1473.58" style="font-family:'FiraSans-Regular','Fira Sans',sans-serif;font-size:50px" transform="matrix(1,0,0,1,-2132,-380) matrix(1,0,0,1,1738.24,98.1256) matrix(1,0,0,1,-3,40.3406)">Disposer</text></g></g><g><text x="2142" y="812.69" style="font-family:'FiraSans-Regular','Fira Sans',sans-serif;font-size:45.833px" transform="matrix(1,0,0,1,-2132,-380) matrix(1,0,0,1,197.756,-121.243)">New</text><text x="2056.32" y="858.523" style="font-family:'FiraSans-Regular','Fira Sans',sans-serif;font-size:45.833px" transform="matrix(1,0,0,1,-2132,-380) matrix(1,0,0,1,197.756,-121.243)">Mix<tspan x="2127.04 2152.24 2168.1" y="858.523 858.523 858.523">er/</tspan>Driv<tspan x="2274.16" y="858.523">e</tspan>r</text></g><g><g><text x="2195.9" y="837.915" style="font-family:'FiraSans-Regular','Fira Sans',sans-serif;font-size:41.667px" transform="matrix(1,0,0,1,-2132,-380) matrix(1,0,0,1,-54,0) matrix(0.595906,-0.803054,0.803054,0.595906,473.641,2339.83)">Cr<tspan x="2234.9" y="837.915">e</tspan>at<tspan x="2295.11" y="837.915">e</tspan></text></g><g><path d="M212.72,146.182L212.72,132.063L519.412,132.063L519.412,103.825L540.487,139.123L519.412,174.421L519.412,146.182L212.72,146.182Z" style="fill:#3e3e3e" transform="matrix(1,0,0,1,-2132,-380) matrix(1,0,0,1,-54,0) matrix(-0.39895,0.55751,-0.616407,-0.441096,2749.77,876.339)"/></g></g><g><g><text x="2237.19" y="855.933" style="font-family:'FiraSans-Regular','Fira Sans',sans-serif;font-size:37.5px" transform="matrix(1,0,0,1,-2132,-380) matrix(1,0,0,1,30,0) matrix(0.597416,-0.801932,0.801932,0.597416,474.195,2407.65)">Schedul<tspan x="2373.02" y="855.933">e</tspan> Mix<tspan x="2461.44" y="855.933">e</tspan>r</text></g><g><path d="M212.72,146.182L212.72,132.063L519.412,132.063L519.412,103.825L540.487,139.123L519.412,174.421L519.412,146.182L212.72,146.182Z" style="fill:#0091ff" transform="matrix(1,0,0,1,-2132,-380) matrix(1,0,0,1,30,0) matrix(-0.39895,0.55751,-0.616407,-0.441096,2839.77,876.339)"/></g></g><g><path d="M212.72,146.182L212.72,132.063L499.302,132.063L499.302,103.825L540.487,139.123L499.302,174.421L499.302,146.182L212.72,146.182Z" style="fill:#0091ff" transform="matrix(1,0,0,1,-2132,-380) matrix(-0.204144,0.285279,-0.616407,-0.441096,2849.16,1445.1)"/></g><g><path d="M212.72,146.182L212.72,132.063L524.246,132.063L524.246,103.825L540.487,139.123L524.246,174.421L524.246,146.182L212.72,146.182Z" style="fill:#0091ff" transform="matrix(1,0,0,1,-2132,-380) matrix(-0.757756,0.466024,-0.397074,-0.645643,3152.8,1402.47)"/></g><g><g><text x="2058.5" y="551.43" style="font-family:'FiraSans-Regular','Fira Sans',sans-serif;font-size:41.667px" transform="matrix(1,0,0,1,-2132,-380) matrix(1,0,0,1,30,0) matrix(0.592937,-0.805249,0.805249,0.592937,936.176,2440.92)">Deschedul<tspan x="2255.92" y="551.43">e</tspan></text></g><g><path d="M251.747,146.182L251.747,174.421L212.72,139.123L251.747,103.825L251.747,132.063L540.487,132.063L540.487,146.182L251.747,146.182Z" style="fill:#0091ff" transform="matrix(1,0,0,1,-2132,-380) matrix(1,0,0,1,30,0) matrix(-0.39895,0.55751,-0.616407,-0.441096,2929.77,876.339)"/></g></g><g><text x="2256.37" y="574.853" style="font-family:'FiraSans-Regular','Fira Sans',sans-serif;font-size:41.667px" transform="matrix(1,0,0,1,-2132,-380) matrix(1,0,0,1,554.954,389.188)">M<tspan x="2289.33 2312.83 2332.91" y="574.853 574.853 574.853">ove</tspan> Mix<tspan x="2431.16" y="574.853">e</tspan>r</text></g><g><text x="2840.19" y="1319.22" style="font-family:'FiraSans-Regular','Fira Sans',sans-serif;font-size:64.865px" transform="matrix(1,0,0,1,-2132,-380) matrix(1,0,0,1,37.8377,-12.6126)">...</text></g><g><path d="M212.72,146.182L212.72,132.063L521.426,132.063L521.426,103.825L540.487,139.123L521.426,174.421L521.426,146.182L212.72,146.182Z" style="fill:#3e3e3e" transform="matrix(1,0,0,1,-2132,-380) matrix(1,0,0,1,2011.31,633.864)"/></g><g><g><path d="M212.72,146.182L212.72,132.063L519.412,132.063L519.412,103.825L540.487,139.123L519.412,174.421L519.412,146.182L212.72,146.182Z" style="fill:#3e3e3e" transform="matrix(1,0,0,1,-2132,-380) matrix(1,0,0,1,530,0) matrix(-0.39895,0.55751,-0.616407,-0.441096,2249.77,876.339)"/></g><g><text x="2184.79" y="837.915" style="font-family:'FiraSans-Regular','Fira Sans',sans-serif;font-size:41.667px" transform="matrix(1,0,0,1,-2132,-380) matrix(1,0,0,1,530,0) matrix(0.595906,-0.803054,0.803054,0.595906,-21.9714,2325.42)">Destr<tspan x="2284.71 2308.63" y="837.915 837.915">oy</tspan></text></g></g><g><path d="M926.251,688.123L929.33,726.605L896.697,705.978L926.251,688.123Z" style="fill:#0091ff" transform="matrix(1,0,0,1,-2132,-380) matrix(1,-0,-0,1,2132,380)"/><path d="M612.214,726.605C612.214,726.605 754.971,452.986 915.045,702.961" style="fill:none;stroke:#0091ff;stroke-width:11.51px;stroke-linecap:butt" transform="matrix(1,0,0,1,-2132,-380) matrix(1,-0,-0,1,2132,380)"/></g><g><g><path d="M212.72,146.182L212.72,132.063L521.426,132.063L521.426,103.825L540.487,139.123L521.426,174.421L521.426,146.182L212.72,146.182Z" style="fill:#3e3e3e" transform="matrix(1,0,0,1,-2132,-380) matrix(1,0,0,1,2112.36,364.866) matrix(1,0,0,1,299,-52.947)"/></g><g><text x="235.411" y="98.782" style="font-family:'FiraSans-Regular','Fira Sans',sans-serif;font-size:75px" transform="matrix(1,0,0,1,-2132,-380) matrix(1,0,0,1,2112.36,364.866) matrix(1,0,0,1,-168.926,12.6064)">Int<tspan x="327.811 369.061 396.511" y="98.782 98.782 98.782">era</tspan>ction</text></g></g><g><g><path d="M212.72,146.182L212.72,132.063L521.426,132.063L521.426,103.825L540.487,139.123L521.426,174.421L521.426,146.182L212.72,146.182Z" style="fill:#0091ff" transform="matrix(1,0,0,1,-2132,-380) matrix(1,0,0,1,2112.36,443.866) matrix(1,0,0,1,299,-52.947)"/></g><g><text x="235.411" y="98.782" style="font-family:'FiraSans-Regular','Fira Sans',sans-serif;font-size:75px" transform="matrix(1,0,0,1,-2132,-380) matrix(1,0,0,1,2112.36,443.866) matrix(1,0,0,1,-168.926,12.6064)">M<tspan x="294.736" y="98.782">e</tspan>ssag<tspan x="485.086" y="98.782">e</tspan>s</text></g></g><g><text x="2720.74" y="1522.82" style="font-family:'FiraSans-Regular','Fira Sans',sans-serif;font-size:41.667px" transform="matrix(1,0,0,1,-2132,-380) matrix(0.849915,-0.52692,0.52692,0.849915,-377.877,1731.84)">T<tspan x="2738.95 2754.2" y="1522.82 1522.82">ra</tspan>ck cl<tspan x="2860.87" y="1522.82">e</tspan>anup</text></g></g></svg>